<?xml version="1.0" standalone="no"?>
<!DOCTYPE svg PUBLIC "-//W3C//DTD SVG 20010904//EN"
 "http://www.w3.org/TR/2001/REC-SVG-20010904/DTD/svg10.dtd">
<svg version="1.0" xmlns="http://www.w3.org/2000/svg"
 width="204.000000pt" height="192.000000pt" viewBox="0 0 204.000000 192.000000"
 preserveAspectRatio="xMidYMid meet">

<g transform="translate(0.000000,192.000000) scale(0.100000,-0.100000)"
fill="#000000" stroke="none">
<path d="M0 1591 l0 -330 29 -21 c40 -28 48 -56 24 -89 -19 -25 -19 -27 -2
-69 10 -24 25 -42 34 -42 12 0 14 -6 9 -27 -4 -16 -11 -36 -16 -46 -14 -27 0
-55 29 -59 28 -3 38 -17 48 -60 3 -19 14 -30 31 -34 18 -5 25 -12 23 -28 -1
-11 1 -33 6 -48 6 -25 12 -28 52 -28 27 0 42 -4 38 -10 -3 -5 -2 -10 4 -10 14
0 22 30 26 102 5 68 6 74 29 163 9 32 16 71 16 85 0 18 3 21 9 11 9 -14 31 -7
31 10 0 5 15 33 34 60 33 49 34 52 20 85 -9 21 -11 41 -5 56 4 13 6 28 4 35
-6 17 15 53 30 53 7 0 23 13 35 30 31 41 60 46 107 19 34 -20 70 -28 140 -31
11 -1 32 2 48 6 22 7 27 5 27 -8 0 -14 10 -17 63 -15 62 2 176 -13 211 -27 20
-8 76 -59 76 -70 0 -3 16 -24 35 -47 19 -22 35 -48 35 -58 0 -11 11 -20 30
-24 36 -8 38 -17 8 -38 l-23 -15 35 -10 c27 -8 29 -10 12 -11 -13 -1 -20 -5
-17 -11 3 -5 -5 -22 -19 -37 -15 -15 -26 -37 -26 -49 0 -47 -112 -73 -118 -28
-3 23 -51 41 -53 20 0 -6 -5 0 -10 13 l-9 24 -132 -7 c-94 -5 -133 -4 -138 4
-5 8 -22 2 -56 -17 -60 -36 -115 -112 -145 -206 -21 -66 -21 -68 -4 -114 10
-25 21 -61 25 -79 6 -26 5 -31 -7 -27 -12 5 -14 1 -9 -15 4 -12 1 -32 -5 -44
-7 -13 -12 -35 -10 -51 2 -19 -2 -27 -14 -27 -12 0 -14 -4 -6 -18 6 -10 8 -28
5 -39 -7 -25 17 -36 56 -27 45 10 52 9 63 -7 13 -21 -17 -64 -53 -76 -16 -5
30 -10 130 -13 l155 -5 0 -30 c0 -37 -19 -42 -157 -44 -88 -1 -96 -3 -91 -19
2 -11 0 -42 -5 -70 l-9 -52 284 0 c278 0 284 0 278 20 -3 10 -8 43 -10 71 l-3
52 -89 -2 c-48 0 -104 3 -123 7 -30 7 -35 12 -35 37 l0 30 155 5 c104 3 148 8
135 14 -32 15 -65 48 -65 67 0 29 34 31 81 5 25 -14 69 -31 99 -37 66 -14 96
-32 116 -72 15 -28 18 -29 64 -23 44 6 50 4 70 -21 18 -23 21 -38 18 -90 l-3
-63 193 0 192 0 0 80 c0 57 -3 79 -12 78 -8 -2 -15 19 -20 56 -4 33 -12 64
-18 70 -12 12 -14 66 -2 66 4 0 12 -10 17 -22 6 -12 16 -23 23 -26 9 -3 12
163 12 807 l0 811 -595 0 c-522 0 -595 -2 -595 -15 0 -8 -5 -15 -10 -15 -6 0
-13 7 -16 15 -5 13 -61 15 -415 15 l-409 0 0 -329z m1150 289 c0 -5 -4 -10
-10 -10 -5 0 -10 5 -10 10 0 6 5 10 10 10 6 0 10 -4 10 -10z m-294 -55 c-33
-18 -36 -18 -36 -6 0 9 21 18 50 20 8 0 2 -6 -14 -14z m-476 1 c0 -11 -19 -15
-25 -6 -3 5 1 10 9 10 9 0 16 -2 16 -4z m476 -82 c-45 -41 -60 -61 -61 -84 -2
-28 1 -30 32 -30 26 0 33 4 33 20 0 15 9 21 40 26 26 4 40 12 40 22 0 12 3 12
15 2 12 -10 15 -10 15 4 0 9 5 16 11 16 6 0 8 8 4 19 -5 15 -1 18 20 13 14 -2
25 -5 25 -7 0 -1 -5 -16 -11 -33 -7 -20 -15 -29 -25 -25 -8 3 -14 -1 -14 -10
0 -21 -20 -33 -30 -17 -5 9 -9 9 -14 1 -4 -6 -12 -9 -17 -6 -5 4 -17 2 -26 -4
-16 -8 -14 -10 10 -16 21 -6 27 -13 27 -35 0 -29 -32 -66 -49 -55 -7 3 -11 -2
-11 -14 0 -14 -6 -21 -20 -21 -19 0 -21 -5 -24 -52 -1 -24 -9 -29 -58 -33 -60
-5 -79 8 -50 32 13 11 24 35 28 61 7 43 6 44 -15 31 -11 -8 -21 -17 -21 -21 0
-5 -5 -8 -11 -8 -5 0 -7 5 -4 10 3 6 4 10 2 10 -3 0 -18 -21 -33 -47 -15 -27
-32 -51 -38 -55 -13 -9 -46 -1 -63 16 -16 14 -6 54 16 61 18 6 61 69 61 90 0
8 14 22 30 32 17 9 30 26 30 36 0 10 9 21 20 24 10 3 22 13 25 23 10 30 147
98 165 82 3 -2 -22 -28 -54 -58z m-82 38 c-12 -9 -38 -30 -57 -46 -20 -15 -47
-48 -59 -73 -12 -24 -30 -49 -40 -54 -10 -5 -18 -14 -18 -18 0 -5 -14 -23 -30
-41 -17 -18 -33 -43 -36 -56 -3 -13 -10 -24 -16 -24 -10 0 -68 -124 -68 -146
0 -8 -6 -17 -13 -20 -7 -2 -14 -23 -16 -47 -1 -23 -8 -64 -16 -91 -8 -27 -15
-60 -15 -73 0 -13 -4 -22 -9 -18 -12 7 -6 163 8 227 15 63 51 158 61 158 4 0
13 20 19 44 13 53 67 126 141 191 30 27 58 52 61 57 13 20 65 45 94 46 30 1
30 1 9 -16z m721 -437 c32 -26 15 -35 -19 -10 -11 8 -30 15 -44 15 -13 0 -20
4 -17 10 11 18 49 11 80 -15z m169 -86 c3 -17 3 -36 -1 -43 -12 -18 -3 -47 23
-75 13 -14 24 -31 24 -38 0 -6 3 -13 8 -15 14 -6 42 -74 58 -142 8 -39 22 -75
31 -81 9 -7 13 -18 11 -26 -3 -8 3 -23 13 -34 10 -11 19 -37 21 -58 1 -21 8
-43 15 -49 16 -13 17 -38 3 -38 -20 0 -36 -24 -32 -47 3 -18 1 -22 -12 -17
-11 4 -16 18 -16 43 0 51 -10 81 -26 81 -9 0 -15 -12 -16 -32 l-1 -33 -4 33
c-2 17 -9 32 -15 32 -6 0 -1 8 10 19 12 10 22 21 22 25 0 12 -41 6 -67 -11
-20 -13 -28 -14 -31 -5 -2 7 -8 10 -13 6 -5 -3 -9 0 -9 6 0 6 -4 8 -10 5 -5
-3 -10 -15 -10 -26 0 -41 -59 -9 -60 34 0 28 -20 20 -20 -9 0 -36 -24 -25 -28
13 -3 25 -7 30 -23 26 -15 -4 -20 1 -25 26 -6 26 -10 30 -30 25 -15 -4 -32 1
-49 14 -26 20 -26 21 -6 32 17 9 21 8 21 -5 0 -19 36 -20 44 0 3 8 17 20 31
27 27 12 34 38 10 38 -18 0 -17 -3 -6 37 8 26 6 35 -5 41 -14 8 -14 10 0 21 8
7 12 20 9 28 -5 12 -2 15 10 10 9 -3 17 -2 17 4 0 6 4 8 9 4 5 -3 12 -1 16 5
3 5 2 10 -3 10 -13 0 -3 41 16 62 8 10 19 15 23 12 5 -3 9 2 9 11 0 10 -5 13
-12 9 -8 -5 -9 0 -5 17 4 13 7 30 7 38 0 10 3 11 14 2 10 -9 15 -8 20 4 10 26
33 17 40 -16z m211 -179 c3 -5 -1 -10 -9 -10 -9 0 -16 5 -16 10 0 6 4 10 9 10
6 0 13 -4 16 -10z m-515 -76 c0 -8 -5 -12 -10 -9 -6 4 -8 11 -5 16 9 14 15 11
15 -7z m-54 -109 c14 -13 13 -15 -5 -15 -12 0 -21 6 -21 15 0 8 3 15 6 15 3 0
12 -7 20 -15z m401 -227 c-3 -8 -6 -5 -6 6 -1 11 2 17 5 13 3 -3 4 -12 1 -19z
m60 -50 c-3 -8 -6 -5 -6 6 -1 11 2 17 5 13 3 -3 4 -12 1 -19z m90 -10 c-3 -8
-6 -5 -6 6 -1 11 2 17 5 13 3 -3 4 -12 1 -19z"/>
<path d="M866 1603 c-9 -22 12 -43 23 -24 10 15 4 41 -9 41 -4 0 -11 -8 -14
-17z"/>
<path d="M1570 1130 c0 -5 7 -10 15 -10 8 0 15 5 15 10 0 6 -7 10 -15 10 -8 0
-15 -4 -15 -10z"/>
<path d="M1515 1050 c-3 -4 -2 -15 1 -24 5 -13 9 -14 20 -5 8 6 14 15 14 19 0
12 -29 20 -35 10z"/>
<path d="M1837 693 c-4 -3 -7 -15 -7 -26 0 -25 9 -17 15 12 4 22 2 25 -8 14z"/>
<path d="M606 1321 c-4 -6 -5 -11 -1 -11 3 0 -9 -13 -27 -29 -30 -26 -32 -34
-33 -90 0 -68 9 -81 60 -81 38 1 102 48 129 97 18 33 20 43 10 72 -6 20 -19
36 -30 38 -63 13 -102 14 -108 4z"/>
<path d="M998 1013 c7 -3 16 -2 19 1 4 3 -2 6 -13 5 -11 0 -14 -3 -6 -6z"/>
<path d="M240 689 c0 -5 5 -7 10 -4 6 3 10 8 10 11 0 2 -4 4 -10 4 -5 0 -10
-5 -10 -11z"/>
<path d="M239 578 c-12 -23 -12 -23 10 -4 23 21 26 26 11 26 -5 0 -15 -10 -21
-22z"/>
<path d="M191 519 c-14 -32 -7 -54 9 -29 9 13 14 60 7 60 -1 0 -8 -14 -16 -31z"/>
<path d="M15 440 c-3 -5 -3 -22 0 -39 3 -17 0 -33 -6 -37 -8 -4 -7 -9 2 -15
11 -6 11 -11 1 -21 -8 -8 -12 -58 -12 -170 l0 -158 24 0 c23 0 24 3 31 115 4
64 13 138 20 165 7 28 11 59 8 70 -6 21 12 28 20 8 6 -19 14 -8 22 32 7 33 6
34 -9 15 -13 -17 -17 -18 -26 -5 -5 8 -10 22 -10 31 0 17 -55 25 -65 9z m45
-30 c0 -5 -5 -10 -11 -10 -5 0 -7 5 -4 10 3 6 8 10 11 10 2 0 4 -4 4 -10z m10
-30 c0 -5 -9 -10 -20 -10 -11 0 -20 5 -20 10 0 6 9 10 20 10 11 0 20 -4 20
-10z m0 -40 c0 -5 -6 -10 -14 -10 -8 0 -18 5 -21 10 -3 6 3 10 14 10 12 0 21
-4 21 -10z"/>
<path d="M464 385 c-10 -8 -14 -15 -7 -15 19 0 43 11 43 21 0 13 -14 11 -36
-6z"/>
</g>
</svg>
